<mxfile host="65bd71144e">
    <diagram id="WPlvb9ShjRO4vQOgbXLm" name="Page-1">
        <mxGraphModel dx="798" dy="610" grid="1" gridSize="10" guides="1" tooltips="1" connect="1" arrows="1" fold="1" page="1" pageScale="1" pageWidth="827" pageHeight="1169" math="0" shadow="0">
            <root>
                <mxCell id="0"/>
                <mxCell id="1" parent="0"/>
                <mxCell id="4" value="" style="edgeStyle=none;html=1;" edge="1" parent="1" source="2" target="3">
                    <mxGeometry relative="1" as="geometry"/>
                </mxCell>
                <mxCell id="2" value="INÍCIO" style="rounded=1;whiteSpace=wrap;html=1;arcSize=50;fillColor=#7D003E;fontColor=#ffffff;strokeColor=#6D1F00;" vertex="1" parent="1">
                    <mxGeometry x="330" y="150" width="120" height="60" as="geometry"/>
                </mxCell>
                <mxCell id="12" value="" style="edgeStyle=none;html=1;" edge="1" parent="1" source="3" target="5">
                    <mxGeometry relative="1" as="geometry"/>
                </mxCell>
                <mxCell id="3" value="&quot;Informe o período que você estuda (m - matutino , v - vespertina , n - noturno): &quot;" style="shape=document;whiteSpace=wrap;html=1;boundedLbl=1;fillColor=#7D003E;strokeColor=none;" vertex="1" parent="1">
                    <mxGeometry x="250" y="250" width="280" height="110" as="geometry"/>
                </mxCell>
                <mxCell id="13" value="" style="edgeStyle=none;html=1;" edge="1" parent="1" source="5" target="6">
                    <mxGeometry relative="1" as="geometry"/>
                </mxCell>
                <mxCell id="5" value="periodo" style="shape=card;whiteSpace=wrap;html=1;fillColor=#7D003E;strokeColor=none;" vertex="1" parent="1">
                    <mxGeometry x="350" y="400" width="80" height="100" as="geometry"/>
                </mxCell>
                <mxCell id="14" value="" style="edgeStyle=none;html=1;" edge="1" parent="1" source="6" target="9">
                    <mxGeometry relative="1" as="geometry"/>
                </mxCell>
                <mxCell id="19" value="" style="edgeStyle=none;html=1;" edge="1" parent="1" source="6" target="18">
                    <mxGeometry relative="1" as="geometry"/>
                </mxCell>
                <mxCell id="6" value="periodo == &quot;m&quot;" style="rhombus;whiteSpace=wrap;html=1;fillColor=#7D003E;strokeColor=none;" vertex="1" parent="1">
                    <mxGeometry x="320" y="540" width="140" height="90" as="geometry"/>
                </mxCell>
                <mxCell id="15" value="" style="edgeStyle=none;html=1;" edge="1" parent="1" source="9" target="10">
                    <mxGeometry relative="1" as="geometry"/>
                </mxCell>
                <mxCell id="20" value="" style="edgeStyle=none;html=1;" edge="1" parent="1" source="9" target="10">
                    <mxGeometry relative="1" as="geometry"/>
                </mxCell>
                <mxCell id="21" style="edgeStyle=none;html=1;entryX=0;entryY=0.5;entryDx=0;entryDy=0;" edge="1" parent="1" source="9" target="17">
                    <mxGeometry relative="1" as="geometry"/>
                </mxCell>
                <mxCell id="9" value="periodo == &quot;v&quot;" style="rhombus;whiteSpace=wrap;html=1;fillColor=#7D003E;strokeColor=none;" vertex="1" parent="1">
                    <mxGeometry x="240" y="640" width="140" height="90" as="geometry"/>
                </mxCell>
                <mxCell id="22" style="edgeStyle=none;html=1;entryX=0;entryY=0.5;entryDx=0;entryDy=0;" edge="1" parent="1" source="10" target="16">
                    <mxGeometry relative="1" as="geometry"/>
                </mxCell>
                <mxCell id="24" value="" style="edgeStyle=none;html=1;" edge="1" parent="1" source="10" target="23">
                    <mxGeometry relative="1" as="geometry"/>
                </mxCell>
                <mxCell id="10" value="periodo == &quot;n&quot;" style="rhombus;whiteSpace=wrap;html=1;fillColor=#7D003E;strokeColor=none;" vertex="1" parent="1">
                    <mxGeometry x="150" y="730" width="140" height="90" as="geometry"/>
                </mxCell>
                <mxCell id="26" style="edgeStyle=none;html=1;entryX=1;entryY=0.5;entryDx=0;entryDy=0;" edge="1" parent="1" source="16" target="25">
                    <mxGeometry relative="1" as="geometry">
                        <Array as="points">
                            <mxPoint x="480" y="970"/>
                        </Array>
                    </mxGeometry>
                </mxCell>
                <mxCell id="16" value="Boa noite!" style="shape=document;whiteSpace=wrap;html=1;boundedLbl=1;fillColor=#7D003E;strokeColor=none;" vertex="1" parent="1">
                    <mxGeometry x="520" y="810" width="140" height="90" as="geometry"/>
                </mxCell>
                <mxCell id="17" value="Boa tarde!" style="shape=document;whiteSpace=wrap;html=1;boundedLbl=1;fillColor=#7D003E;strokeColor=none;" vertex="1" parent="1">
                    <mxGeometry x="520" y="700" width="140" height="90" as="geometry"/>
                </mxCell>
                <mxCell id="18" value="Bom dia!" style="shape=document;whiteSpace=wrap;html=1;boundedLbl=1;fillColor=#7D003E;strokeColor=none;" vertex="1" parent="1">
                    <mxGeometry x="520" y="590" width="140" height="90" as="geometry"/>
                </mxCell>
                <mxCell id="27" style="edgeStyle=none;html=1;entryX=0;entryY=0.5;entryDx=0;entryDy=0;exitX=0.5;exitY=1;exitDx=0;exitDy=0;" edge="1" parent="1" source="23" target="25">
                    <mxGeometry relative="1" as="geometry">
                        <Array as="points">
                            <mxPoint x="120" y="970"/>
                        </Array>
                    </mxGeometry>
                </mxCell>
                <mxCell id="23" value="Opção inválida." style="rhombus;whiteSpace=wrap;html=1;fillColor=#7D003E;strokeColor=none;" vertex="1" parent="1">
                    <mxGeometry x="40" y="830" width="150" height="90" as="geometry"/>
                </mxCell>
                <mxCell id="29" value="" style="edgeStyle=none;html=1;" edge="1" parent="1" source="25" target="28">
                    <mxGeometry relative="1" as="geometry"/>
                </mxCell>
                <mxCell id="25" value="" style="ellipse;whiteSpace=wrap;html=1;aspect=fixed;fillColor=#7D003E;strokeColor=none;" vertex="1" parent="1">
                    <mxGeometry x="290" y="930" width="80" height="80" as="geometry"/>
                </mxCell>
                <mxCell id="28" value="FIM" style="rounded=1;whiteSpace=wrap;html=1;fillColor=#7D003E;arcSize=50;strokeColor=none;" vertex="1" parent="1">
                    <mxGeometry x="270" y="1060" width="120" height="60" as="geometry"/>
                </mxCell>
            </root>
        </mxGraphModel>
    </diagram>
</mxfile>